<?xml version="1.0" standalone="no"?>
<!DOCTYPE svg PUBLIC "-//W3C//DTD SVG 20010904//EN"
 "http://www.w3.org/TR/2001/REC-SVG-20010904/DTD/svg10.dtd">
<svg version="1.0" xmlns="http://www.w3.org/2000/svg"
 width="300.000000pt" height="215.000000pt" viewBox="0 0 300.000000 215.000000"
 preserveAspectRatio="xMidYMid meet">
<metadata>
Created by potrace 1.10, written by Peter Selinger 2001-2011
</metadata>
<g transform="translate(0.000000,215.000000) scale(0.050000,-0.050000)"
fill="#000000" stroke="none">
<path d="M3275 4135 c-61 -47 -54 -220 10 -249 39 -17 187 -1 212 24 18 18 21
170 3 170 -10 0 -14 14 -7 30 8 21 2 27 -19 19 -16 -7 -36 -2 -43 10 -18 29
-116 27 -156 -4z m165 -65 c33 -40 9 -124 -39 -140 -89 -28 -162 81 -97 146
33 33 106 30 136 -6z"/>
<path d="M3313 4031 c-14 -36 37 -79 77 -64 16 7 30 30 30 52 0 49 -89 59
-107 12z"/>
<path d="M3945 4015 c13 -41 435 -46 435 -6 0 26 -36 31 -222 31 -168 0 -219
-6 -213 -25z"/>
<path d="M1600 3247 l0 -328 -61 69 c-75 86 -259 173 -374 178 -54 3 -89 15
-96 34 -22 55 -28 147 -11 169 68 87 -56 205 -134 127 -29 -29 -32 -109 -3
-126 18 -12 11 -112 -14 -189 -8 -26 -11 -26 -28 0 -12 18 -18 20 -19 5 0 -14
-12 -20 -27 -14 -111 42 -593 -287 -593 -406 0 -14 -8 -26 -18 -26 -11 0 -25
-29 -33 -65 -7 -36 -28 -81 -45 -100 -19 -23 -34 -86 -39 -170 -10 -179 -13
-146 26 -339 25 -123 325 -264 630 -297 130 -14 231 -47 149 -49 -52 -1 -227
-102 -286 -165 -50 -53 -64 -241 -34 -438 17 -115 47 -126 193 -73 175 63 194
64 299 15 145 -68 153 -61 -182 -171 -116 -38 -235 -91 -265 -117 -66 -59 -70
-78 -12 -60 34 11 40 7 31 -18 -13 -34 43 -337 66 -353 8 -5 26 -45 40 -88
120 -368 481 -152 486 290 1 65 9 118 18 118 9 0 15 7 14 15 -7 42 4 66 25 53
14 -9 18 -5 9 9 -8 13 -6 23 5 23 10 0 64 45 119 100 97 97 163 127 165 75 0
-14 0 -230 -1 -480 -1 -404 2 -455 31 -455 28 0 31 51 24 479 l-7 479 87 33
c56 21 103 58 131 101 42 64 68 78 131 69 15 -2 21 6 14 18 -12 19 45 32 97
22 10 -2 24 7 32 19 18 30 401 164 433 152 15 -6 27 -2 27 9 0 10 11 19 25 19
14 0 52 14 85 32 50 26 161 32 696 35 700 4 743 14 656 150 -18 29 -1070 38
-1214 11 -58 -11 -65 -6 -95 70 -18 45 -39 83 -48 85 -64 12 -162 8 -153 -6 6
-10 -1 -21 -16 -25 -121 -38 -216 -81 -216 -97 0 -13 9 -13 25 0 14 11 45 18
70 16 25 -3 45 3 45 12 0 15 136 60 205 67 36 3 63 -59 81 -190 l10 -70 -303
-107 c-167 -59 -359 -129 -428 -156 l-125 -50 -55 40 c-31 21 -105 45 -165 53
-144 18 -161 38 -69 85 41 22 67 44 57 50 -21 12 -348 -85 -348 -104 0 -16
194 -72 352 -102 138 -26 179 -45 160 -75 -15 -26 -219 -104 -269 -104 -20 0
-96 -62 -168 -137 -117 -121 -139 -135 -194 -127 -46 6 -61 1 -61 -22 0 -17
18 -34 41 -38 57 -9 50 -45 -10 -52 -61 -8 -69 -64 -9 -64 51 0 43 -71 -26
-257 -127 -337 -291 -244 -405 231 -19 79 -32 154 -28 166 7 21 559 241 574
229 25 -21 -27 -89 -68 -89 -54 0 -66 -35 -18 -53 26 -10 229 171 229 204 0 5
-29 9 -64 9 -36 0 -133 35 -221 81 l-155 81 -149 -51 c-202 -70 -191 -77 -191
130 0 216 25 277 145 347 153 89 175 87 407 -28 163 -81 224 -102 269 -93 33
7 59 4 59 -5 0 -34 158 -59 230 -37 39 12 70 29 70 38 0 24 -35 21 -50 -3 -10
-17 -109 -30 -110 -15 -1 3 -6 82 -12 175 -6 94 -15 182 -19 196 -5 14 31 49
80 79 91 55 167 175 145 232 -6 15 0 45 14 66 27 41 -1 347 -32 347 -9 0 -16
9 -16 21 0 11 -18 58 -39 103 -22 45 -35 89 -29 99 6 9 1 17 -11 17 -75 0
-141 626 -73 694 12 13 2761 9 2794 -4 17 -6 43 2 57 19 14 17 23 31 18 31 -4
0 -650 5 -1437 11 -786 6 -1446 14 -1465 18 -32 7 -35 -19 -35 -322z m-584
-40 c-9 -193 -56 -200 -56 -9 0 115 6 142 31 142 25 0 30 -24 25 -133z m-81
-230 c49 -49 115 -10 125 73 11 91 17 92 195 30 326 -114 520 -392 540 -774
l11 -204 -69 -69 c-235 -235 -974 -277 -1390 -79 -156 75 -171 108 -160 356
17 396 215 665 573 782 l130 43 12 -69 c7 -37 21 -77 33 -89z m655 -1474 c-7
-6 -29 -1 -51 13 -21 13 -61 24 -90 24 -28 0 -129 40 -225 89 -96 49 -191 94
-212 100 -58 18 -34 26 128 40 177 16 345 56 406 97 l44 29 6 -190 c3 -105 0
-195 -6 -202z m2450 57 c0 -39 -13 -40 -619 -40 -598 0 -664 6 -631 60 28 45
1250 25 1250 -20z"/>
<path d="M710 2804 c-606 -209 -345 -860 329 -819 790 48 734 857 -59 854
-108 0 -207 -13 -270 -35z m515 -64 c261 -81 383 -287 275 -465 -22 -36 -46
-64 -55 -63 -8 2 -27 -14 -41 -34 -79 -114 -456 -178 -621 -106 -298 130 -332
165 -333 342 0 280 392 445 775 326z"/>
<path d="M659 2544 c-80 -89 -81 -94 -29 -164 28 -37 50 -58 50 -46 0 13 18
18 41 12 26 -7 51 3 70 26 28 37 29 37 16 -2 -8 -23 -6 -33 4 -24 26 24 32
174 7 174 -11 0 -14 11 -6 23 10 16 4 20 -18 11 -18 -7 -38 -4 -45 7 -17 28
-55 21 -90 -17z m117 -89 c6 -51 1 -55 -65 -55 -61 0 -71 7 -71 47 0 96 125
104 136 8z"/>
<path d="M1170 2527 c-40 -61 -38 -91 10 -142 22 -24 40 -55 40 -69 0 -16 6
-18 15 -6 8 11 42 34 75 51 60 30 102 159 51 159 -11 0 -21 11 -21 25 0 48
-137 33 -170 -18z m166 -74 c6 -49 1 -53 -65 -53 -85 0 -112 43 -62 99 47 52
119 26 127 -46z"/>
<path d="M1131 2342 c-6 -10 -80 -19 -165 -20 -170 -2 -220 -26 -156 -75 22
-16 38 -38 35 -48 -6 -22 -9 -21 136 -30 120 -7 137 -1 175 67 l25 45 -79 -40
c-86 -44 -166 -44 -237 1 -68 42 -54 54 40 37 105 -20 275 13 275 53 0 31 -31
38 -49 10z"/>
<path d="M5032 3482 c1 -51 4 -101 6 -112 3 -11 4 -78 2 -150 -10 -379 -9
-431 13 -455 13 -13 27 -35 31 -47 5 -16 86 -24 252 -24 134 0 244 -8 244 -18
0 -10 16 -9 35 1 19 9 80 19 134 21 132 4 277 102 151 102 -22 0 -40 13 -40
30 0 17 -7 30 -17 30 -9 0 -28 22 -42 48 -14 27 -43 53 -63 58 -21 6 -44 27
-52 47 -16 46 -78 102 -128 118 -23 7 -38 30 -38 60 0 33 -9 44 -28 37 -17 -7
-34 6 -42 32 -8 24 -19 38 -25 31 -24 -23 -81 52 -71 95 9 43 8 43 -23 5 -17
-21 -32 -32 -33 -25 -2 8 -5 23 -8 34 -3 11 -6 28 -7 39 -3 16 -83 22 -83 6 0
-4 152 -155 339 -337 375 -367 387 -390 185 -363 -74 10 -244 15 -379 11
l-245 -8 0 404 c0 367 -3 404 -35 412 -30 8 -35 -4 -33 -82z"/>
<path d="M4620 3538 c-38 -7 -65 -15 -60 -17 27 -12 138 -12 171 -1 59 21 -24
35 -111 18z"/>
<path d="M5860 1350 c0 -735 4 -1332 10 -1327 14 14 16 2638 2 2652 -7 6 -12
-590 -12 -1325z"/>
<path d="M2443 2376 c-94 -163 -32 -374 111 -377 312 -8 2352 2 2410 12 96 16
116 53 116 214 0 232 116 214 -1343 220 l-1252 5 -42 -74z m2577 -156 l0 -160
-1270 0 -1270 0 0 147 c0 80 6 152 13 160 8 7 579 13 1270 13 l1257 0 0 -160z"/>
<path d="M2195 1849 c-30 -17 -55 -39 -55 -50 0 -10 -13 -19 -30 -19 -16 0
-30 -13 -30 -30 0 -16 -13 -30 -30 -30 -16 0 -30 -8 -30 -17 0 -25 -72 -104
-85 -92 -5 6 -15 -3 -22 -20 -26 -68 73 -14 193 105 122 121 174 150 174 98 0
-37 -201 -227 -260 -245 -45 -13 -71 -18 -155 -26 -14 -2 -25 -10 -25 -19 0
-13 155 -17 222 -6 22 4 160 119 158 132 -1 6 25 43 59 82 64 72 76 108 39
108 -12 0 -17 14 -11 30 15 39 -39 38 -112 -1z"/>
<path d="M4514 1644 c-207 -4 -275 -11 -269 -30 6 -18 141 -25 533 -29 406 -4
523 -11 517 -30 -6 -19 -133 -25 -522 -25 -459 0 -513 -3 -513 -32 0 -29 54
-33 520 -33 445 0 520 4 520 30 0 18 12 25 30 18 17 -7 30 -3 30 8 0 10 -10
19 -22 19 -15 0 -13 12 5 34 15 18 17 27 4 20 -13 -8 -27 -3 -32 11 -10 30
-378 48 -801 39z"/>
<path d="M749 1511 c-31 -31 -49 -72 -49 -111 0 -39 18 -80 49 -111 99 -99
271 -29 271 111 0 82 -78 160 -160 160 -39 0 -80 -18 -111 -49z m187 -35 c61
-61 8 -176 -81 -176 -61 0 -95 35 -95 100 0 90 113 139 176 76z"/>
<path d="M1186 1432 l-56 -48 76 -36 c84 -40 111 -25 102 58 -2 24 -5 51 -6
59 -4 30 -61 14 -116 -33z"/>
<path d="M1340 1232 c0 -4 -13 -38 -29 -75 -26 -64 -25 -69 9 -71 40 -3 93 97
71 133 -13 20 -51 30 -51 13z"/>
<path d="M2264 1198 c-85 -17 -95 -28 -95 -100 1 -82 -11 -80 484 -80 478 -1
554 23 462 149 -26 36 -706 61 -851 31z m814 -67 c64 -39 -35 -51 -428 -51
-401 0 -472 9 -443 55 12 19 840 16 871 -4z"/>
<path d="M3279 1191 c-25 -25 -24 -57 1 -41 11 7 20 -8 20 -34 -1 -37 -4 -40
-20 -16 -16 24 -19 21 -20 -16 0 -33 10 -44 35 -40 19 3 34 -3 32 -14 -4 -22
1819 -22 1938 0 59 11 69 20 60 55 -9 31 -5 37 17 25 22 -12 23 -10 5 10 -13
13 -19 39 -12 56 9 23 3 28 -22 18 -18 -7 -33 -6 -33 2 0 22 -1979 17 -2001
-5z m2011 -76 c0 -20 -216 -26 -985 -30 -981 -5 -1035 -2 -977 57 24 23 1962
-3 1962 -27z"/>
<path d="M464 1019 c-29 -11 -41 -28 -32 -42 10 -16 4 -20 -19 -11 -52 20
-133 -19 -133 -66 0 -22 7 -39 15 -38 38 6 53 -4 28 -20 -21 -13 -17 -35 20
-113 55 -114 74 -124 133 -69 24 23 44 32 44 20 0 -12 9 -17 20 -10 48 29 21
70 -30 46 -83 -37 -140 6 -140 108 0 66 9 86 45 102 25 11 45 27 45 36 0 9 14
12 30 5 21 -8 30 2 30 31 0 23 -2 41 -5 41 -3 -1 -26 -10 -51 -20z"/>
<path d="M5176 779 c-4 -13 -159 -20 -451 -20 -283 1 -445 -6 -445 -19 0 -11
-20 -21 -45 -22 -25 0 -34 -6 -20 -11 32 -13 33 -67 1 -67 -14 0 -6 -13 18
-30 35 -24 132 -30 533 -31 499 -2 589 10 565 73 -6 15 -2 28 9 28 10 0 18 29
16 65 -2 47 -5 53 -11 20 -10 -50 -66 -63 -66 -15 0 17 -9 30 -20 30 -11 0
-20 -9 -20 -20 0 -11 -10 -20 -21 -20 -12 0 -16 8 -10 19 6 10 3 23 -7 30 -10
6 -22 2 -26 -10z m120 -112 c-5 -27 -1016 -61 -1016 -34 0 2 -5 18 -12 35 -11
29 42 32 511 32 474 0 523 -3 517 -33z"/>
<path d="M2187 740 c-73 -164 -89 -162 920 -160 901 1 953 3 953 50 0 15 11
32 25 38 20 10 20 14 0 24 -14 6 -20 20 -14 30 22 34 -42 37 -956 43 -797 4
-916 1 -928 -25z m1848 -75 c7 -20 -185 -25 -913 -25 -809 0 -922 4 -922 30 0
41 1821 36 1835 -5z"/>
<path d="M2205 290 c-86 -38 -40 -40 760 -40 755 0 805 -2 811 -36 8 -40
-1542 -53 -1567 -13 -18 29 -49 22 -49 -10 0 -58 82 -64 838 -63 l769 2 33 60
c59 107 26 112 -809 116 -453 2 -758 -4 -786 -16z"/>
<path d="M4033 304 c-18 -4 -33 -16 -33 -27 0 -10 -9 -14 -20 -7 -13 8 -20
-40 -20 -129 0 -81 9 -141 20 -141 18 0 24 36 28 186 l2 55 640 1 640 0 6
-121 c7 -134 36 -163 47 -46 12 132 -8 210 -56 218 -60 9 -1212 19 -1254 11z"/>
</g>
</svg>
